<?xml version="1.0" encoding="UTF-8" standalone="no"?>
<!DOCTYPE svg PUBLIC "-//W3C//DTD SVG 1.1//EN"
 "http://www.w3.org/Graphics/SVG/1.1/DTD/svg11.dtd">
<!-- Generated by graphviz version 14.1.2 (20260124.0452)
 -->
<!-- Title: rag_arch Pages: 1 -->
<svg width="2069pt" height="1142pt"
 viewBox="432.00 432.00 1637.00 710.00" xmlns="http://www.w3.org/2000/svg" xmlns:xlink="http://www.w3.org/1999/xlink">
<g id="graph0" class="graph" transform="scale(1 1) rotate(0) translate(468 674)">
<title>rag_arch</title>
<polygon fill="none" stroke="none" points="-36,36 -36,-242 1168.6,-242 1168.6,36 -36,36"/>
<g id="clust1" class="cluster">
<title>cluster_build</title>
<polygon fill="none" stroke="#e2ded6" stroke-dasharray="5,2" points="26.75,-8 26.75,-80 477.52,-80 477.52,-8 26.75,-8"/>
<text xml:space="preserve" text-anchor="middle" x="252.14" y="-65.55" font-family="Helvetica,sans-Serif" font-size="11.00">BUILD TIME</text>
</g>
<g id="clust2" class="cluster">
<title>cluster_runtime</title>
<polygon fill="none" stroke="#e2ded6" stroke-dasharray="5,2" points="8,-86 8,-198 1124.6,-198 1124.6,-86 8,-86"/>
<text xml:space="preserve" text-anchor="middle" x="566.3" y="-183.55" font-family="Helvetica,sans-Serif" font-size="11.00">REQUEST TIME</text>
</g>
<!-- site -->
<g id="node1" class="node">
<title>site</title>
<path fill="#ffffff" stroke="#e2ded6" stroke-width="1.5" d="M102.8,-53.89C102.8,-53.89 44.75,-53.89 44.75,-53.89 38.75,-53.89 32.75,-47.89 32.75,-41.89 32.75,-41.89 32.75,-26.11 32.75,-26.11 32.75,-20.11 38.75,-14.11 44.75,-14.11 44.75,-14.11 102.8,-14.11 102.8,-14.11 108.8,-14.11 114.8,-20.11 114.8,-26.11 114.8,-26.11 114.8,-41.89 114.8,-41.89 114.8,-47.89 108.8,-53.89 102.8,-53.89"/>
<text xml:space="preserve" text-anchor="middle" x="73.78" y="-35.75" font-family="Helvetica,sans-Serif" font-size="10.00" fill="#1c1c1a">index.html</text>
<text xml:space="preserve" text-anchor="middle" x="73.78" y="-24.5" font-family="Helvetica,sans-Serif" font-size="10.00" fill="#1c1c1a">portfolio site</text>
</g>
<!-- ingest -->
<g id="node2" class="node">
<title>ingest</title>
<path fill="#1a6b66" stroke="#e2ded6" stroke-width="1.5" d="M319.85,-53.89C319.85,-53.89 223.55,-53.89 223.55,-53.89 217.55,-53.89 211.55,-47.89 211.55,-41.89 211.55,-41.89 211.55,-26.11 211.55,-26.11 211.55,-20.11 217.55,-14.11 223.55,-14.11 223.55,-14.11 319.85,-14.11 319.85,-14.11 325.85,-14.11 331.85,-20.11 331.85,-26.11 331.85,-26.11 331.85,-41.89 331.85,-41.89 331.85,-47.89 325.85,-53.89 319.85,-53.89"/>
<text xml:space="preserve" text-anchor="middle" x="271.7" y="-35.75" font-family="Helvetica,sans-Serif" font-size="10.00" fill="#ffffff">ingest.mjs</text>
<text xml:space="preserve" text-anchor="middle" x="271.7" y="-24.5" font-family="Helvetica,sans-Serif" font-size="10.00" fill="#ffffff">parse . clean . chunk</text>
</g>
<!-- site&#45;&gt;ingest -->
<g id="edge1" class="edge">
<title>site&#45;&gt;ingest</title>
<path fill="none" stroke="#1a6b66" d="M115.37,-34C139.6,-34 171.07,-34 199.34,-34"/>
<polygon fill="#1a6b66" stroke="#1a6b66" points="199.3,-37.5 209.3,-34 199.3,-30.5 199.3,-37.5"/>
</g>
<!-- kb -->
<g id="node3" class="node">
<title>kb</title>
<path fill="#ffffff" stroke="#e2ded6" stroke-width="1.5" d="M459.52,-53.89C459.52,-53.89 387.23,-53.89 387.23,-53.89 381.23,-53.89 375.23,-47.89 375.23,-41.89 375.23,-41.89 375.23,-26.11 375.23,-26.11 375.23,-20.11 381.23,-14.11 387.23,-14.11 387.23,-14.11 459.52,-14.11 459.52,-14.11 465.52,-14.11 471.52,-20.11 471.52,-26.11 471.52,-26.11 471.52,-41.89 471.52,-41.89 471.52,-47.89 465.52,-53.89 459.52,-53.89"/>
<text xml:space="preserve" text-anchor="middle" x="423.38" y="-35.75" font-family="Helvetica,sans-Serif" font-size="10.00" fill="#1c1c1a">knowledge.json</text>
<text xml:space="preserve" text-anchor="middle" x="423.38" y="-24.5" font-family="Helvetica,sans-Serif" font-size="10.00" fill="#1c1c1a">29 chunks</text>
</g>
<!-- ingest&#45;&gt;kb -->
<g id="edge2" class="edge">
<title>ingest&#45;&gt;kb</title>
<path fill="none" stroke="#1a6b66" d="M332.29,-34C342.47,-34 353.05,-34 363.23,-34"/>
<polygon fill="#1a6b66" stroke="#1a6b66" points="362.99,-37.5 372.99,-34 362.99,-30.5 362.99,-37.5"/>
</g>
<!-- browser -->
<g id="node4" class="node">
<title>browser</title>
<path fill="#ffffff" stroke="#e2ded6" stroke-width="1.5" d="M121.55,-158.89C121.55,-158.89 26,-158.89 26,-158.89 20,-158.89 14,-152.89 14,-146.89 14,-146.89 14,-131.11 14,-131.11 14,-125.11 20,-119.11 26,-119.11 26,-119.11 121.55,-119.11 121.55,-119.11 127.55,-119.11 133.55,-125.11 133.55,-131.11 133.55,-131.11 133.55,-146.89 133.55,-146.89 133.55,-152.89 127.55,-158.89 121.55,-158.89"/>
<text xml:space="preserve" text-anchor="middle" x="73.78" y="-140.75" font-family="Helvetica,sans-Serif" font-size="10.00" fill="#1c1c1a">browser</text>
<text xml:space="preserve" text-anchor="middle" x="73.78" y="-129.5" font-family="Helvetica,sans-Serif" font-size="10.00" fill="#1c1c1a">user asks a question</text>
</g>
<!-- worker -->
<g id="node5" class="node">
<title>worker</title>
<path fill="#1a6b66" stroke="#e2ded6" stroke-width="1.5" d="M313.1,-170.89C313.1,-170.89 230.3,-170.89 230.3,-170.89 224.3,-170.89 218.3,-164.89 218.3,-158.89 218.3,-158.89 218.3,-143.11 218.3,-143.11 218.3,-137.11 224.3,-131.11 230.3,-131.11 230.3,-131.11 313.1,-131.11 313.1,-131.11 319.1,-131.11 325.1,-137.11 325.1,-143.11 325.1,-143.11 325.1,-158.89 325.1,-158.89 325.1,-164.89 319.1,-170.89 313.1,-170.89"/>
<text xml:space="preserve" text-anchor="middle" x="271.7" y="-152.75" font-family="Helvetica,sans-Serif" font-size="10.00" fill="#ffffff">Cloudflare Worker</text>
<text xml:space="preserve" text-anchor="middle" x="271.7" y="-141.5" font-family="Helvetica,sans-Serif" font-size="10.00" fill="#ffffff">pavai&#45;rag</text>
</g>
<!-- browser&#45;&gt;worker -->
<g id="edge3" class="edge">
<title>browser&#45;&gt;worker</title>
<path fill="none" stroke="#1a6b66" d="M134.13,-127.6C144.24,-125.65 151.55,-124.25 151.55,-124.25 151.55,-124.25 193.55,-124.25 193.55,-124.25 193.55,-124.25 199.15,-126.19 207.34,-129.03"/>
<polygon fill="#1a6b66" stroke="#1a6b66" points="205.94,-132.25 216.53,-132.22 208.23,-125.64 205.94,-132.25"/>
<text xml:space="preserve" text-anchor="middle" x="172.55" y="-125.45" font-family="Helvetica,sans-Serif" font-size="9.00" fill="#85817a">POST { q }</text>
</g>
<!-- worker&#45;&gt;browser -->
<g id="edge11" class="edge">
<title>worker&#45;&gt;browser</title>
<path fill="none" stroke="#1a6b66" d="M217.58,-147.75C195.4,-146.39 169.31,-144.79 145.55,-143.33"/>
<polygon fill="#1a6b66" stroke="#1a6b66" points="145.8,-139.84 135.6,-142.73 145.37,-146.83 145.8,-139.84"/>
<text xml:space="preserve" text-anchor="middle" x="172.55" y="-147.27" font-family="Helvetica,sans-Serif" font-size="9.00" fill="#85817a">{ a, g, src }</text>
</g>
<!-- embed -->
<g id="node6" class="node">
<title>embed</title>
<path fill="#c4882d" stroke="#e2ded6" stroke-width="1.5" d="M465.9,-131.89C465.9,-131.89 380.85,-131.89 380.85,-131.89 374.85,-131.89 368.85,-125.89 368.85,-119.89 368.85,-119.89 368.85,-104.11 368.85,-104.11 368.85,-98.11 374.85,-92.11 380.85,-92.11 380.85,-92.11 465.9,-92.11 465.9,-92.11 471.9,-92.11 477.9,-98.11 477.9,-104.11 477.9,-104.11 477.9,-119.89 477.9,-119.89 477.9,-125.89 471.9,-131.89 465.9,-131.89"/>
<text xml:space="preserve" text-anchor="middle" x="423.38" y="-113.75" font-family="Helvetica,sans-Serif" font-size="10.00" fill="#ffffff">1. embed question</text>
<text xml:space="preserve" text-anchor="middle" x="423.38" y="-102.5" font-family="Helvetica,sans-Serif" font-size="10.00" fill="#ffffff">bge&#45;small&#45;en&#45;v1.5</text>
</g>
<!-- worker&#45;&gt;embed -->
<g id="edge4" class="edge">
<title>worker&#45;&gt;embed</title>
<path fill="none" stroke="#85817a" d="M325.47,-137.25C335.78,-134.56 346.7,-131.72 357.35,-128.94"/>
<polygon fill="#85817a" stroke="#85817a" points="358.05,-132.38 366.85,-126.47 356.29,-125.6 358.05,-132.38"/>
</g>
<!-- search -->
<g id="node7" class="node">
<title>search</title>
<path fill="#c4882d" stroke="#e2ded6" stroke-width="1.5" d="M631.95,-131.89C631.95,-131.89 551.4,-131.89 551.4,-131.89 545.4,-131.89 539.4,-125.89 539.4,-119.89 539.4,-119.89 539.4,-104.11 539.4,-104.11 539.4,-98.11 545.4,-92.11 551.4,-92.11 551.4,-92.11 631.95,-92.11 631.95,-92.11 637.95,-92.11 643.95,-98.11 643.95,-104.11 643.95,-104.11 643.95,-119.89 643.95,-119.89 643.95,-125.89 637.95,-131.89 631.95,-131.89"/>
<text xml:space="preserve" text-anchor="middle" x="591.67" y="-113.75" font-family="Helvetica,sans-Serif" font-size="10.00" fill="#ffffff">2. cosine rank</text>
<text xml:space="preserve" text-anchor="middle" x="591.67" y="-102.5" font-family="Helvetica,sans-Serif" font-size="10.00" fill="#ffffff">28 chunks . top 4</text>
</g>
<!-- embed&#45;&gt;search -->
<g id="edge5" class="edge">
<title>embed&#45;&gt;search</title>
<path fill="none" stroke="#85817a" d="M478.37,-112C493.94,-112 511.07,-112 527.16,-112"/>
<polygon fill="#85817a" stroke="#85817a" points="527.14,-115.5 537.14,-112 527.14,-108.5 527.14,-115.5"/>
</g>
<!-- guard -->
<g id="node8" class="node">
<title>guard</title>
<path fill="#efe6dc" stroke="#d4725a" stroke-width="1.5" d="M774.25,-151.89C774.25,-151.89 692.95,-151.89 692.95,-151.89 686.95,-151.89 680.95,-145.89 680.95,-139.89 680.95,-139.89 680.95,-124.11 680.95,-124.11 680.95,-118.11 686.95,-112.11 692.95,-112.11 692.95,-112.11 774.25,-112.11 774.25,-112.11 780.25,-112.11 786.25,-118.11 786.25,-124.11 786.25,-124.11 786.25,-139.89 786.25,-139.89 786.25,-145.89 780.25,-151.89 774.25,-151.89"/>
<text xml:space="preserve" text-anchor="middle" x="733.6" y="-133.75" font-family="Helvetica,sans-Serif" font-size="10.00" fill="#d4725a">threshold &gt;= 0.30</text>
<text xml:space="preserve" text-anchor="middle" x="733.6" y="-122.5" font-family="Helvetica,sans-Serif" font-size="10.00" fill="#d4725a">else refuse</text>
</g>
<!-- search&#45;&gt;guard -->
<g id="edge6" class="edge">
<title>search&#45;&gt;guard</title>
<path fill="none" stroke="#85817a" d="M644.38,-119.39C652.52,-120.55 661.01,-121.77 669.37,-122.96"/>
<polygon fill="#85817a" stroke="#85817a" points="668.75,-126.41 679.14,-124.36 669.74,-119.48 668.75,-126.41"/>
</g>
<!-- guard&#45;&gt;worker -->
<g id="edge8" class="edge">
<title>guard&#45;&gt;worker</title>
<path fill="none" stroke="#d4725a" d="M680.26,-137.31C661.07,-139.26 643.95,-141 643.95,-141 643.95,-141 442.91,-146.42 336.71,-149.28"/>
<polygon fill="#d4725a" stroke="#d4725a" points="336.91,-145.77 327.01,-149.54 337.1,-152.77 336.91,-145.77"/>
<text xml:space="preserve" text-anchor="middle" x="508.65" y="-146.17" font-family="Helvetica,sans-Serif" font-size="9.00" fill="#d4725a">refuse</text>
</g>
<!-- prompt -->
<g id="node9" class="node">
<title>prompt</title>
<path fill="#c4882d" stroke="#e2ded6" stroke-width="1.5" d="M957.55,-151.89C957.55,-151.89 853.75,-151.89 853.75,-151.89 847.75,-151.89 841.75,-145.89 841.75,-139.89 841.75,-139.89 841.75,-124.11 841.75,-124.11 841.75,-118.11 847.75,-112.11 853.75,-112.11 853.75,-112.11 957.55,-112.11 957.55,-112.11 963.55,-112.11 969.55,-118.11 969.55,-124.11 969.55,-124.11 969.55,-139.89 969.55,-139.89 969.55,-145.89 963.55,-151.89 957.55,-151.89"/>
<text xml:space="preserve" text-anchor="middle" x="905.65" y="-133.75" font-family="Helvetica,sans-Serif" font-size="10.00" fill="#ffffff">3. build prompt</text>
<text xml:space="preserve" text-anchor="middle" x="905.65" y="-122.5" font-family="Helvetica,sans-Serif" font-size="10.00" fill="#ffffff">context + anti&#45;injection</text>
</g>
<!-- guard&#45;&gt;prompt -->
<g id="edge7" class="edge">
<title>guard&#45;&gt;prompt</title>
<path fill="none" stroke="#85817a" d="M786.54,-132C800.24,-132 815.3,-132 829.94,-132"/>
<polygon fill="#85817a" stroke="#85817a" points="829.51,-135.5 839.51,-132 829.51,-128.5 829.51,-135.5"/>
<text xml:space="preserve" text-anchor="middle" x="814" y="-133.2" font-family="Helvetica,sans-Serif" font-size="9.00" fill="#85817a">pass</text>
</g>
<!-- gen -->
<g id="node10" class="node">
<title>gen</title>
<path fill="#1a6b66" stroke="#e2ded6" stroke-width="1.5" d="M1106.6,-161.89C1106.6,-161.89 1018.55,-161.89 1018.55,-161.89 1012.55,-161.89 1006.55,-155.89 1006.55,-149.89 1006.55,-149.89 1006.55,-134.11 1006.55,-134.11 1006.55,-128.11 1012.55,-122.11 1018.55,-122.11 1018.55,-122.11 1106.6,-122.11 1106.6,-122.11 1112.6,-122.11 1118.6,-128.11 1118.6,-134.11 1118.6,-134.11 1118.6,-149.89 1118.6,-149.89 1118.6,-155.89 1112.6,-161.89 1106.6,-161.89"/>
<text xml:space="preserve" text-anchor="middle" x="1062.57" y="-143.75" font-family="Helvetica,sans-Serif" font-size="10.00" fill="#ffffff">4. generate answer</text>
<text xml:space="preserve" text-anchor="middle" x="1062.57" y="-132.5" font-family="Helvetica,sans-Serif" font-size="10.00" fill="#ffffff">Llama&#45;3.1&#45;8b&#45;fp8</text>
</g>
<!-- prompt&#45;&gt;gen -->
<g id="edge9" class="edge">
<title>prompt&#45;&gt;gen</title>
<path fill="none" stroke="#85817a" d="M970.11,-136.1C978.18,-136.62 986.45,-137.15 994.57,-137.67"/>
<polygon fill="#85817a" stroke="#85817a" points="994.19,-141.16 1004.39,-138.31 994.64,-134.17 994.19,-141.16"/>
</g>
<!-- gen&#45;&gt;worker -->
<g id="edge10" class="edge">
<title>gen&#45;&gt;worker</title>
<path fill="none" stroke="#1a6b66" d="M1005.92,-153.49C986.54,-157.49 969.55,-161 969.55,-161 969.55,-161 906.65,-171 906.65,-171 422.38,-171 422.38,-171 422.38,-171 422.38,-171 377.41,-164.99 336.78,-159.56"/>
<polygon fill="#1a6b66" stroke="#1a6b66" points="337.35,-156.11 326.97,-158.25 336.42,-163.05 337.35,-156.11"/>
</g>
</g>
</svg>
